<svg width="1024" height="1024" viewBox="0 0 680 680" xmlns="http://www.w3.org/2000/svg" role="img">
<title>Назначения — иконка модуля Circuit Workspace</title>
<defs>
<linearGradient id="bgGrad" x1="0%" y1="0%" x2="100%" y2="100%">
<stop offset="0%" stop-color="#2e1750"/>
<stop offset="45%" stop-color="#7b3fd0"/>
<stop offset="100%" stop-color="#2fb3a5"/>
</linearGradient>
<radialGradient id="glow1" cx="30%" cy="22%" r="60%">
<stop offset="0%" stop-color="#c9a3ff" stop-opacity="0.5"/>
<stop offset="100%" stop-color="#c9a3ff" stop-opacity="0"/>
</radialGradient>

<linearGradient id="glassPanel" x1="0%" y1="0%" x2="100%" y2="100%">
<stop offset="0%" stop-color="#ffffff" stop-opacity="0.42"/>
<stop offset="45%" stop-color="#c9d6ff" stop-opacity="0.14"/>
<stop offset="100%" stop-color="#7b8fe0" stop-opacity="0.10"/>
</linearGradient>
<radialGradient id="coreGrad" cx="38%" cy="32%" r="70%">
<stop offset="0%" stop-color="#ffffff" stop-opacity="0.95"/>
<stop offset="55%" stop-color="#c6d6ff" stop-opacity="0.55"/>
<stop offset="100%" stop-color="#7e97ea" stop-opacity="0.25"/>
</radialGradient>
<linearGradient id="sheen" x1="0%" y1="0%" x2="100%" y2="100%">
<stop offset="0%" stop-color="#ffffff" stop-opacity="0.5"/>
<stop offset="100%" stop-color="#ffffff" stop-opacity="0"/>
</linearGradient>
<clipPath id="iconClip"><rect x="20" y="20" width="640" height="640" rx="150"/></clipPath>
</defs>
<g clip-path="url(#iconClip)"><g>
<rect x="20" y="20" width="640" height="640" fill="url(#bgGrad)"/><rect x="20" y="20" width="640" height="640" fill="url(#glow1)"/>
<circle cx="146.0" cy="552.0" r="222.0" fill="#2fb3a5" opacity="0.20"/>
<circle cx="556.0" cy="146.0" r="178.0" fill="#c9a3ff" opacity="0.18"/>

<rect x="150" y="196" width="380" height="288" rx="34" fill="url(#glassPanel)" stroke="#eef2ff" stroke-opacity="0.6" stroke-width="6"/>
<path d="M 168 224 L 340 350 L 512 224" fill="none" stroke="#ffffff" stroke-opacity="0.55" stroke-width="12" stroke-linecap="round" stroke-linejoin="round"/>
<g stroke="#ffffff" stroke-opacity="0.34" stroke-width="9" stroke-linecap="round">
<line x1="196" y1="408" x2="330" y2="408"/>
<line x1="196" y1="446" x2="286" y2="446"/>
</g>
<circle cx="470" cy="452" r="86" fill="url(#coreGrad)" stroke="#ffffff" stroke-opacity="0.8" stroke-width="6"/>
<path d="M 432 452 L 461 481 L 512 424" fill="none" stroke="#2e1750" stroke-opacity="0.72" stroke-width="16" stroke-linecap="round" stroke-linejoin="round"/>
<path d="M 20 60 Q 20 20 60 20 L 340 20 L 130 240 Q 20 220 20 150 Z" fill="url(#sheen)" opacity="0.45"/>
</g></g>
<rect x="21" y="21" width="638" height="638" rx="149" fill="none" stroke="#ffffff" stroke-opacity="0.25" stroke-width="2"/>
</svg>
